<?xml version="1.0" standalone="no"?>
<!DOCTYPE svg PUBLIC "-//W3C//DTD SVG 20010904//EN"
 "http://www.w3.org/TR/2001/REC-SVG-20010904/DTD/svg10.dtd">
<svg version="1.0" xmlns="http://www.w3.org/2000/svg"
 width="512.000000pt" height="512.000000pt" viewBox="0 0 512.000000 512.000000"
 preserveAspectRatio="xMidYMid meet">
<metadata>
Created by potrace 1.10, written by Peter Selinger 2001-2011
</metadata>
<g transform="translate(0.000000,512.000000) scale(0.100000,-0.100000)"
fill="#000000" stroke="none">
<path d="M490 4729 c-32 -13 -78 -56 -96 -91 -12 -23 -14 -145 -14 -735 0
-793 -4 -745 73 -807 l39 -31 728 0 728 0 38 30 c79 65 75 11 72 817 l-3 716
-31 39 c-62 77 -14 73 -804 72 -442 0 -714 -4 -730 -10z m1461 -39 c22 -12 49
-35 59 -53 19 -31 20 -55 20 -732 0 -794 5 -749 -80 -792 l-44 -23 -691 0
c-769 0 -734 -3 -782 69 l-23 34 0 710 0 711 23 33 c43 64 21 62 785 62 678 1
694 1 733 -19z"/>
<path d="M1034 4191 c-49 -22 -97 -78 -113 -130 -6 -21 -11 -97 -11 -168 0
-121 2 -133 28 -184 53 -105 143 -139 338 -126 134 8 202 53 239 156 23 67 21
283 -4 336 -25 53 -72 102 -116 120 -55 23 -307 20 -361 -4z m366 -31 c22 -11
52 -39 67 -62 28 -41 28 -44 28 -198 0 -149 -1 -158 -24 -192 -13 -19 -40 -46
-59 -59 -34 -23 -43 -24 -192 -24 -154 0 -157 0 -198 28 -70 46 -82 83 -82
247 0 148 10 191 56 231 49 42 75 48 222 49 124 0 148 -3 182 -20z"/>
<path d="M2541 4722 c-19 -9 -48 -34 -65 -55 l-31 -39 0 -728 0 -728 30 -38
c65 -79 11 -75 817 -72 l716 3 39 31 c77 62 73 14 73 803 0 681 -1 706 -20
745 -12 25 -36 52 -62 69 l-42 27 -711 0 c-656 0 -713 -1 -744 -18z m1463 -26
c18 -8 45 -29 60 -48 l26 -35 0 -710 0 -710 -23 -34 c-48 -72 -13 -69 -782
-69 -659 0 -692 1 -732 20 -25 11 -51 33 -63 52 -19 32 -20 49 -20 738 0 682
1 706 20 737 10 18 36 41 57 52 37 20 58 20 731 21 570 0 699 -2 726 -14z"/>
<path d="M3095 4189 c-47 -25 -95 -78 -112 -123 -6 -18 -12 -89 -12 -167 -1
-127 1 -138 25 -188 48 -96 126 -131 287 -131 162 1 231 33 279 130 25 51 27
64 28 184 0 145 -10 189 -53 242 -52 62 -91 74 -257 74 -129 0 -150 -2 -185
-21z m358 -25 c91 -46 107 -86 107 -264 0 -120 -3 -146 -20 -179 -43 -86 -97
-104 -281 -100 -124 4 -139 6 -171 28 -19 13 -46 40 -59 59 -23 34 -24 43 -24
192 0 154 0 157 27 198 47 70 80 81 246 82 113 0 150 -3 175 -16z"/>
<path d="M2786 2777 c3 -10 9 -15 12 -12 3 3 0 11 -7 18 -10 9 -11 8 -5 -6z"/>
<path d="M485 2664 c-47 -24 -84 -65 -96 -104 -6 -23 -9 -278 -7 -741 l3 -705
25 -37 c14 -21 43 -46 66 -57 39 -19 62 -20 745 -20 789 0 741 -4 803 73 l31
39 0 728 0 728 -30 38 c-64 79 -13 74 -805 74 -619 0 -709 -2 -735 -16z m1476
-42 c72 -44 69 -10 69 -790 l0 -699 -22 -33 c-13 -18 -40 -42 -60 -52 -36 -19
-66 -19 -734 -19 -762 2 -725 -1 -778 61 l-26 32 0 709 c0 749 0 741 44 778
47 40 67 40 781 38 l690 -2 36 -23z"/>
<path d="M1050 2139 c-46 -19 -90 -60 -115 -109 -23 -46 -25 -60 -25 -189 0
-164 13 -206 80 -264 56 -47 110 -59 256 -54 135 4 183 21 228 80 48 62 56 97
56 235 0 144 -9 177 -62 237 -57 66 -88 75 -250 74 -79 0 -154 -5 -168 -10z
m362 -48 c19 -13 46 -40 59 -59 23 -34 24 -43 24 -192 0 -154 0 -157 -28 -198
-46 -70 -83 -82 -247 -82 -178 0 -218 16 -264 107 -12 25 -16 63 -16 173 0
157 12 199 69 239 51 37 73 41 222 38 135 -2 148 -4 181 -26z"/>
<path d="M2540 2661 c-19 -10 -48 -35 -65 -55 l-30 -38 -3 -156 -3 -157 29
-46 c46 -71 92 -89 230 -89 l112 0 0 -202 c0 -229 7 -257 73 -315 46 -41 74
-45 239 -41 130 3 136 4 172 32 75 57 76 61 76 336 0 279 -3 291 -79 345 -41
29 -48 30 -166 34 l-123 3 -4 122 c-3 114 -5 125 -31 164 -46 70 -83 82 -249
82 -120 0 -149 -3 -178 -19z m320 -21 c20 -5 51 -26 70 -45 l34 -35 6 -131 c6
-164 2 -159 155 -159 100 0 116 -2 145 -22 70 -48 70 -47 71 -310 0 -262 -2
-276 -63 -320 -31 -22 -42 -23 -185 -23 -168 0 -183 5 -230 74 -20 30 -22 44
-23 238 0 113 -5 214 -10 223 -8 15 -27 18 -132 21 -107 4 -128 7 -159 27 -59
36 -69 69 -69 229 0 132 1 140 25 176 14 20 27 37 28 37 1 0 20 7 42 15 47 17
241 20 295 5z"/>
<path d="M3485 2664 c-16 -8 -41 -25 -53 -37 -47 -43 -52 -67 -52 -230 l0
-154 31 -42 c48 -67 89 -81 247 -81 111 0 139 3 170 19 90 46 112 99 112 263
0 98 -4 131 -19 163 -22 47 -64 89 -104 104 -46 18 -296 14 -332 -5z m331 -33
c78 -35 84 -52 84 -229 0 -150 -1 -156 -25 -188 -40 -53 -93 -67 -237 -63
-138 4 -177 18 -211 77 -16 27 -19 52 -18 172 1 177 12 205 98 236 60 21 258
18 309 -5z"/>
<path d="M2566 1545 c-50 -18 -104 -70 -117 -115 -6 -20 -9 -96 -7 -177 3
-141 3 -141 34 -180 54 -68 78 -74 255 -71 154 3 156 3 193 32 62 47 76 90 76
244 0 112 -3 139 -20 171 -24 48 -70 87 -118 101 -54 15 -249 12 -296 -5z
m361 -71 l33 -31 0 -163 c0 -145 -2 -165 -20 -190 -36 -50 -76 -61 -221 -61
-149 0 -188 12 -227 71 -22 33 -23 42 -20 187 3 146 4 152 28 178 42 45 60 50
195 55 148 6 185 -2 232 -46z"/>
<path d="M3484 1536 c-28 -13 -62 -39 -75 -57 -22 -32 -24 -44 -27 -183 -2
-82 -1 -159 2 -172 9 -34 65 -95 103 -110 22 -10 78 -14 173 -14 121 0 146 3
180 20 81 41 104 106 99 282 -4 122 -5 128 -34 169 -49 69 -88 84 -240 87
-120 2 -134 1 -181 -22z m346 -37 c63 -36 70 -58 70 -224 0 -168 -6 -188 -69
-223 -38 -22 -53 -24 -176 -23 -149 2 -168 6 -206 47 -37 40 -41 58 -41 209 0
152 9 178 71 214 32 18 52 21 175 21 122 0 143 -2 176 -21z"/>
<path d="M2275 1349 c-4 -6 -5 -12 -2 -15 2 -3 7 2 10 11 7 17 1 20 -8 4z"/>
</g>
</svg>
